<mxfile host="app.diagrams.net" agent="Mozilla/5.0 (Windows NT 10.0; Win64; x64; rv:136.0) Gecko/20100101 Firefox/136.0" version="26.1.1">
  <diagram name="Page-1" id="03018318-947c-dd8e-b7a3-06fadd420f32">
    <mxGraphModel dx="2267" dy="1469" grid="1" gridSize="10" guides="1" tooltips="1" connect="1" arrows="1" fold="1" page="1" pageScale="1" pageWidth="1100" pageHeight="850" background="#ffffff" math="0" shadow="0">
      <root>
        <mxCell id="0" />
        <mxCell id="1" parent="0" />
        <mxCell id="677b7b8949515195-9" value="" style="line;strokeWidth=1;html=1;rounded=0;shadow=0;labelBackgroundColor=none;fillColor=none;fontFamily=Verdana;fontSize=14;fontColor=#000000;align=center;comic=1;" parent="1" vertex="1">
          <mxGeometry x="-20" y="-50" width="1060" height="10" as="geometry" />
        </mxCell>
        <mxCell id="677b7b8949515195-10" value="" style="whiteSpace=wrap;html=1;rounded=0;shadow=0;labelBackgroundColor=none;strokeWidth=1;fillColor=none;fontFamily=Verdana;fontSize=12;align=center;comic=1;" parent="1" vertex="1">
          <mxGeometry y="-110" width="1040" height="50" as="geometry" />
        </mxCell>
        <mxCell id="677b7b8949515195-26" value="FOOTER" style="whiteSpace=wrap;html=1;rounded=0;shadow=0;labelBackgroundColor=none;strokeWidth=1;fillColor=none;fontFamily=Verdana;fontSize=12;align=center;comic=1;" parent="1" vertex="1">
          <mxGeometry x="30" y="640" width="1040" height="180" as="geometry" />
        </mxCell>
        <mxCell id="MiC8FaawFKK_ar2keSqU-3" value="HOME" style="ellipse;whiteSpace=wrap;html=1;" vertex="1" parent="1">
          <mxGeometry x="260" y="-100" width="130" height="30" as="geometry" />
        </mxCell>
        <mxCell id="MiC8FaawFKK_ar2keSqU-4" value="AUTORI" style="ellipse;whiteSpace=wrap;html=1;" vertex="1" parent="1">
          <mxGeometry x="670" y="-100" width="130" height="30" as="geometry" />
        </mxCell>
        <mxCell id="MiC8FaawFKK_ar2keSqU-5" value="CATALOGO" style="ellipse;whiteSpace=wrap;html=1;labelBorderColor=none;labelBackgroundColor=none;fillColor=#e1d5e7;strokeColor=#9673a6;" vertex="1" parent="1">
          <mxGeometry x="400" y="-100" width="130" height="30" as="geometry" />
        </mxCell>
        <mxCell id="MiC8FaawFKK_ar2keSqU-6" value="LOGIN" style="ellipse;whiteSpace=wrap;html=1;" vertex="1" parent="1">
          <mxGeometry x="540" y="-100" width="130" height="30" as="geometry" />
        </mxCell>
        <mxCell id="MiC8FaawFKK_ar2keSqU-9" value="&lt;div&gt;&lt;b&gt;&lt;br&gt;&lt;/b&gt;&lt;/div&gt;&lt;div&gt;&lt;b&gt;&lt;br&gt;&lt;/b&gt;&lt;/div&gt;&lt;div&gt;&lt;b&gt;&lt;br&gt;&lt;/b&gt;&lt;/div&gt;&lt;div&gt;&lt;b&gt;DESCRIZIONE&lt;/b&gt;&lt;/div&gt;" style="whiteSpace=wrap;html=1;rounded=0;shadow=0;labelBackgroundColor=none;strokeWidth=1;fillColor=none;fontFamily=Verdana;fontSize=12;align=center;comic=1;" vertex="1" parent="1">
          <mxGeometry x="47.5" y="50" width="345" height="500" as="geometry" />
        </mxCell>
        <mxCell id="MiC8FaawFKK_ar2keSqU-10" value="CERCALO TU!" style="rounded=1;whiteSpace=wrap;html=1;" vertex="1" parent="1">
          <mxGeometry x="10" y="-40" width="220" height="30" as="geometry" />
        </mxCell>
        <mxCell id="MiC8FaawFKK_ar2keSqU-18" value="WEB-PAGE" style="swimlane;whiteSpace=wrap;html=1;startSize=60;" vertex="1" parent="1">
          <mxGeometry y="-510" width="1030" height="400" as="geometry" />
        </mxCell>
        <mxCell id="677b7b8949515195-2" value="logo img" style="whiteSpace=wrap;html=1;rounded=0;shadow=0;labelBackgroundColor=none;strokeWidth=1;fontFamily=Verdana;fontSize=28;align=center;comic=1;" parent="MiC8FaawFKK_ar2keSqU-18" vertex="1">
          <mxGeometry x="450" y="170" width="190" height="30" as="geometry" />
        </mxCell>
        <mxCell id="MiC8FaawFKK_ar2keSqU-19" value="IMG COPERTINA" style="whiteSpace=wrap;html=1;aspect=fixed;" vertex="1" parent="1">
          <mxGeometry x="135" y="90" width="170" height="170" as="geometry" />
        </mxCell>
        <mxCell id="MiC8FaawFKK_ar2keSqU-20" value="ITEM" style="text;html=1;align=center;verticalAlign=middle;whiteSpace=wrap;rounded=0;fillColor=none;gradientColor=none;fontStyle=1" vertex="1" parent="1">
          <mxGeometry x="190" y="40" width="60" height="50" as="geometry" />
        </mxCell>
        <mxCell id="MiC8FaawFKK_ar2keSqU-24" value="&lt;div&gt;Trama fumetto&lt;/div&gt;&lt;div&gt;&lt;br&gt;&lt;/div&gt;" style="text;html=1;align=center;verticalAlign=middle;whiteSpace=wrap;rounded=0;" vertex="1" parent="1">
          <mxGeometry x="160" y="340" width="120" height="30" as="geometry" />
        </mxCell>
        <mxCell id="MiC8FaawFKK_ar2keSqU-25" value="MAGGIORI INFO" style="text;html=1;align=center;verticalAlign=middle;whiteSpace=wrap;rounded=0;fontStyle=1" vertex="1" parent="1">
          <mxGeometry x="510" y="350" width="137.5" height="30" as="geometry" />
        </mxCell>
        <mxCell id="MiC8FaawFKK_ar2keSqU-26" value="&lt;div&gt;&lt;b&gt;&lt;br&gt;&lt;/b&gt;&lt;/div&gt;&lt;div&gt;&lt;b&gt;&lt;br&gt;&lt;/b&gt;&lt;/div&gt;&lt;div&gt;&lt;b&gt;&lt;br&gt;&lt;/b&gt;&lt;/div&gt;&lt;div&gt;&lt;b&gt;DESCRIZIONE&lt;/b&gt;&lt;/div&gt;" style="whiteSpace=wrap;html=1;rounded=0;shadow=0;labelBackgroundColor=none;strokeWidth=1;fillColor=none;fontFamily=Verdana;fontSize=12;align=center;comic=1;" vertex="1" parent="1">
          <mxGeometry x="426.25" y="50" width="345" height="500" as="geometry" />
        </mxCell>
        <mxCell id="MiC8FaawFKK_ar2keSqU-27" value="ITEM" style="text;html=1;align=center;verticalAlign=middle;whiteSpace=wrap;rounded=0;fillColor=none;gradientColor=none;fontStyle=1" vertex="1" parent="1">
          <mxGeometry x="568.75" y="50" width="60" height="30" as="geometry" />
        </mxCell>
        <mxCell id="MiC8FaawFKK_ar2keSqU-29" value="IMG COPERTINA" style="whiteSpace=wrap;html=1;aspect=fixed;" vertex="1" parent="1">
          <mxGeometry x="525" y="90" width="170" height="170" as="geometry" />
        </mxCell>
        <mxCell id="MiC8FaawFKK_ar2keSqU-30" value="&lt;div&gt;Trama fumetto&lt;/div&gt;&lt;div&gt;&lt;br&gt;&lt;/div&gt;" style="text;html=1;align=center;verticalAlign=middle;whiteSpace=wrap;rounded=0;" vertex="1" parent="1">
          <mxGeometry x="527.5" y="340" width="120" height="30" as="geometry" />
        </mxCell>
        <mxCell id="MiC8FaawFKK_ar2keSqU-31" value="MAGGIORI INFO" style="text;html=1;align=center;verticalAlign=middle;whiteSpace=wrap;rounded=0;fontStyle=1" vertex="1" parent="1">
          <mxGeometry x="150" y="350" width="137.5" height="30" as="geometry" />
        </mxCell>
        <mxCell id="MiC8FaawFKK_ar2keSqU-32" value="CUORI PER RECENSIONE" style="text;html=1;align=center;verticalAlign=middle;whiteSpace=wrap;rounded=0;" vertex="1" parent="1">
          <mxGeometry x="100" y="410" width="240" height="30" as="geometry" />
        </mxCell>
        <mxCell id="MiC8FaawFKK_ar2keSqU-34" value="CUORI PER RECENSIONE" style="text;html=1;align=center;verticalAlign=middle;whiteSpace=wrap;rounded=0;" vertex="1" parent="1">
          <mxGeometry x="470" y="410" width="240" height="30" as="geometry" />
        </mxCell>
        <mxCell id="MiC8FaawFKK_ar2keSqU-43" value="" style="endArrow=classic;startArrow=classic;html=1;rounded=0;" edge="1" parent="1">
          <mxGeometry width="50" height="50" relative="1" as="geometry">
            <mxPoint x="100" y="600" as="sourcePoint" />
            <mxPoint x="960" y="600" as="targetPoint" />
            <Array as="points" />
          </mxGeometry>
        </mxCell>
        <mxCell id="MiC8FaawFKK_ar2keSqU-44" value="SCROLL" style="text;html=1;align=center;verticalAlign=middle;whiteSpace=wrap;rounded=0;fontStyle=1" vertex="1" parent="1">
          <mxGeometry x="490" y="570" width="60" height="30" as="geometry" />
        </mxCell>
      </root>
    </mxGraphModel>
  </diagram>
</mxfile>
